# xmcd
# Track frame offsets:
# 150
# 16220
# 29003
# 41845
# 52427
# 64327
# 74394
# 88815
# 99766
# 110471
# 120328
# 130385
#
# Disc length: 1882 seconds
# Revision: 0
# Processed by: cddbd v1.5.2PL0 Copyright (c) Steve Scherf et al.
# Submitted via: VisiTrax 2.9.10.228 - For more info visit www.synapsa.com
#
DISCID=ad07580c
DTITLE=Tony Booth - Is this all there is to a honky tonk
DYEAR=2008
DGENRE=Country
TTITLE0=Is this all there is to a Honky Tonk
TTITLE1=Play me the truth
TTITLE2=You love like someone that used to love me
TTITLE3=My memories of you
TTITLE4=I've been around love long enough
TTITLE5=Cold brown bottle
TTITLE6=Losing you just dawned on me
TTITLE7=Another chance at love
TTITLE8=Sweethearts in heaven
TTITLE9=The key's in the mailbox
TTITLE10=Cinderella
TTITLE11=Lonesome 7-7203
EXTD=
EXTT0=
EXTT1=
EXTT2=
EXTT3=
EXTT4=
EXTT5=
EXTT6=
EXTT7=
EXTT8=
EXTT9=
EXTT10=
EXTT11=
PLAYORDER=
